<svg width="200" height="200" viewBox="0 0 200 200" xmlns="http://www.w3.org/2000/svg">
  <!-- Modern Car Logo Design -->
  <defs>
    <linearGradient id="carGradient" x1="0%" y1="0%" x2="100%" y2="100%">
      <stop offset="0%" style="stop-color:#6366f1;stop-opacity:1" />
      <stop offset="100%" style="stop-color:#8b5cf6;stop-opacity:1" />
    </linearGradient>
  </defs>
  
  <!-- Car Body -->
  <g transform="translate(20, 60)">
    <!-- Main body -->
    <path d="M30 40 L40 20 L120 20 L130 40 L150 40 L150 70 L10 70 L10 40 Z" 
          fill="url(#carGradient)" opacity="0.9"/>
    
    <!-- Windows -->
    <path d="M45 25 L50 35 L85 35 L88 25 Z" fill="rgba(255,255,255,0.3)"/>
    <path d="M95 25 L98 35 L113 35 L118 25 Z" fill="rgba(255,255,255,0.3)"/>
    
    <!-- Front light -->
    <circle cx="140" cy="55" r="5" fill="#FFF" opacity="0.8"/>
    
    <!-- Back light -->
    <circle cx="20" cy="55" r="4" fill="#ff6b6b" opacity="0.8"/>
    
    <!-- Wheels -->
    <g>
      <!-- Front wheel -->
      <circle cx="120" cy="70" r="12" fill="#334155"/>
      <circle cx="120" cy="70" r="6" fill="#64748b"/>
      
      <!-- Back wheel -->
      <circle cx="40" cy="70" r="12" fill="#334155"/>
      <circle cx="40" cy="70" r="6" fill="#64748b"/>
    </g>
    
    <!-- Details -->
    <line x1="10" y1="50" x2="150" y2="50" stroke="rgba(255,255,255,0.2)" stroke-width="1"/>
  </g>
  
  <!-- Speed lines for motion effect -->
  <line x1="10" y1="100" x2="30" y2="100" stroke="rgba(99,102,241,0.4)" stroke-width="2" stroke-linecap="round"/>
  <line x1="5" y1="110" x2="20" y2="110" stroke="rgba(139,92,246,0.4)" stroke-width="2" stroke-linecap="round"/>
  <line x1="15" y1="120" x2="35" y2="120" stroke="rgba(99,102,241,0.3)" stroke-width="2" stroke-linecap="round"/>
</svg>
